#N canvas 87 88 1159 687 10;
#X obj 27 493 loadbang;
#X obj 28 625 soundfiler;
#X obj 521 517 dac~;
#X obj 39 27 r fromGUI;
#X obj 40 66 list trim;
#X obj 188 163 tgl 15 0 empty empty empty 17 7 0 10 -262144 -1 -1 0
1;
#X obj 104 164 tgl 15 0 empty empty empty 17 7 0 10 -262144 -1 -1 0
1;
#X obj 38 160 tgl 15 0 empty empty empty 17 7 0 10 -262144 -1 -1 0
1;
#X obj 135 252 bng 15 250 50 0 empty empty empty 17 7 0 10 -262144
-1 -1;
#X obj 237 251 bng 15 250 50 0 empty empty empty 17 7 0 10 -262144
-1 -1;
#X obj 27 249 bng 15 250 50 0 empty empty empty 17 7 0 10 -262144 -1
-1;
#X msg 184 252 stop;
#X msg 279 252 stop;
#X obj 52 196 sel 0;
#X msg 74 251 stop;
#X obj 150 195 sel 0;
#X obj 259 192 sel 0;
#X obj 255 17 tabplay~ switch;
#X obj 297 61 dac~;
#X obj 24 283 tabplay~ sea1;
#X obj 135 283 tabplay~ sea2;
#X obj 534 176 tgl 15 0 empty empty empty 17 7 0 10 -262144 -1 -1 0
1;
#X obj 428 165 tgl 15 0 empty empty empty 17 7 0 10 -262144 -1 -1 0
1;
#X obj 346 167 tgl 15 0 empty empty empty 17 7 0 10 -262144 -1 -1 0
1;
#X obj 459 253 bng 15 250 50 0 empty empty empty 17 7 0 10 -262144
-1 -1;
#X obj 561 252 bng 15 250 50 0 empty empty empty 17 7 0 10 -262144
-1 -1;
#X obj 351 250 bng 15 250 50 0 empty empty empty 17 7 0 10 -262144
-1 -1;
#X msg 508 253 stop;
#X msg 603 253 stop;
#X obj 376 197 sel 0;
#X msg 398 252 stop;
#X obj 474 196 sel 0;
#X obj 583 193 sel 0;
#X obj 669 251 bng 15 250 50 0 empty empty empty 17 7 0 10 -262144
-1 -1;
#X msg 711 252 stop;
#X obj 691 192 sel 0;
#X obj 665 168 tgl 15 0 empty empty empty 17 7 0 10 -262144 -1 -1 0
1;
#X obj 348 284 tabplay~ sky1;
#X obj 459 284 tabplay~ sky2;
#X obj 559 285 tabplay~ sky3;
#X obj 667 284 tabplay~ sky4;
#X obj 957 170 tgl 15 0 empty empty empty 17 7 0 10 -262144 -1 -1 0
1;
#X obj 846 164 tgl 15 0 empty empty empty 17 7 0 10 -262144 -1 -1 0
1;
#X obj 764 167 tgl 15 0 empty empty empty 17 7 0 10 -262144 -1 -1 0
1;
#X obj 877 253 bng 15 250 50 0 empty empty empty 17 7 0 10 -262144
-1 -1;
#X obj 979 252 bng 15 250 50 0 empty empty empty 17 7 0 10 -262144
-1 -1;
#X obj 769 250 bng 15 250 50 0 empty empty empty 17 7 0 10 -262144
-1 -1;
#X msg 926 253 stop;
#X msg 1021 253 stop;
#X obj 794 197 sel 0;
#X msg 816 252 stop;
#X obj 892 196 sel 0;
#X obj 1001 193 sel 0;
#N canvas 0 22 450 278 (subpatch) 0;
#X array sea1 133240 float 2;
#X coords 0 1 133240 -1 200 140 1;
#X restore 1351 554 graph;
#N canvas 0 22 450 278 (subpatch) 0;
#X array sea2 174633 float 2;
#X coords 0 1 174633 -1 200 140 1;
#X restore 1567 551 graph;
#N canvas 0 22 450 278 (subpatch) 0;
#X array sky1 369795 float 2;
#X coords 0 1 369795 -1 200 140 1;
#X restore 1351 215 graph;
#N canvas 0 22 450 278 (subpatch) 0;
#X array sky2 73728 float 2;
#X coords 0 1 73728 -1 200 140 1;
#X restore 1562 214 graph;
#N canvas 0 22 450 278 (subpatch) 0;
#X array sky3 224606 float 2;
#X coords 0 1 224606 -1 200 140 1;
#X restore 1771 214 graph;
#N canvas 0 22 450 278 (subpatch) 0;
#X array sky4 405975 float 2;
#X coords 0 1 405975 -1 200 140 1;
#X restore 1979 213 graph;
#N canvas 0 22 450 278 (subpatch) 0;
#X array switch 7351 float 2;
#X coords 0 1 7351 -1 200 140 1;
#X restore 1085 549 graph;
#X obj 977 222 metro 2000;
#X obj 235 284 tabplay~ sea3;
#X obj 767 285 tabplay~ green1;
#X obj 865 287 tabplay~ green2;
#X obj 966 288 tabplay~ green3;
#N canvas 0 22 450 278 (subpatch) 0;
#X array green1 43667 float 2;
#X coords 0 1 43667 -1 200 140 1;
#X restore 1351 381 graph;
#N canvas 0 22 450 278 (subpatch) 0;
#X array green2 465262 float 2;
#X coords 0 1 465262 -1 200 140 1;
#X restore 1563 382 graph;
#N canvas 0 22 450 278 (subpatch) 0;
#X array green3 11349 float 2;
#X coords 0 1 11349 -1 200 140 1;
#X restore 1774 380 graph;
#N canvas 0 22 450 278 (subpatch) 0;
#X array sea3 120086 float 2;
#X coords 0 1 120086 -1 200 140 1;
#X restore 1775 553 graph;
#X obj 27 222 metro 3000;
#X obj 133 225 metro 3000;
#X obj 234 220 metro 2000;
#X obj 351 223 metro 2500;
#X obj 457 226 metro 1500;
#X obj 558 222 metro 2500;
#X obj 666 221 metro 3000;
#X obj 769 223 metro 2000;
#X obj 875 226 metro 6000;
#X obj 348 88 route /sea1 /sea2 /sea3 /sky1 /sky2 /sky3 /sky4 /green1
/green2 /green3;
#X msg 27 525 read -resize sea1.mp3 sea1 \, read -resize sea2.mp3 sea2
\, read -resize sea3.mp3 sea3 \, read -resize sky1.mp3 sky1 \, read
-resize sky2.mp3 sky2 \, read -resize sky3.mp3 sky3 \, read -resize
sky4.mp3 sky4 \, read -resize green1.mp3 green1 \, read -resize green2.mp3
green2 \, read -resize green3.mp3 green3 \, read -resize switch.mp3
switch;
#X connect 0 0 79 0;
#X connect 3 0 4 0;
#X connect 3 0 17 0;
#X connect 4 0 78 0;
#X connect 5 0 16 0;
#X connect 5 0 71 0;
#X connect 6 0 15 0;
#X connect 6 0 70 0;
#X connect 7 0 13 0;
#X connect 7 0 69 0;
#X connect 8 0 20 0;
#X connect 9 0 61 0;
#X connect 10 0 19 0;
#X connect 11 0 20 0;
#X connect 12 0 61 0;
#X connect 13 0 14 0;
#X connect 14 0 19 0;
#X connect 15 0 11 0;
#X connect 16 0 12 0;
#X connect 17 0 18 0;
#X connect 17 0 18 1;
#X connect 19 0 2 0;
#X connect 19 0 2 1;
#X connect 20 0 2 0;
#X connect 20 0 2 1;
#X connect 21 0 32 0;
#X connect 21 0 74 0;
#X connect 22 0 31 0;
#X connect 22 0 73 0;
#X connect 23 0 29 0;
#X connect 23 0 72 0;
#X connect 24 0 38 0;
#X connect 25 0 39 0;
#X connect 26 0 37 0;
#X connect 27 0 38 0;
#X connect 28 0 39 0;
#X connect 29 0 30 0;
#X connect 30 0 37 0;
#X connect 31 0 27 0;
#X connect 32 0 28 0;
#X connect 33 0 40 0;
#X connect 34 0 40 0;
#X connect 35 0 34 0;
#X connect 36 0 35 0;
#X connect 36 0 75 0;
#X connect 37 0 2 0;
#X connect 37 0 2 1;
#X connect 38 0 2 0;
#X connect 38 0 2 1;
#X connect 39 0 2 0;
#X connect 39 0 2 1;
#X connect 40 0 2 0;
#X connect 40 0 2 1;
#X connect 41 0 52 0;
#X connect 41 0 60 0;
#X connect 42 0 51 0;
#X connect 42 0 77 0;
#X connect 43 0 49 0;
#X connect 43 0 76 0;
#X connect 44 0 63 0;
#X connect 45 0 64 0;
#X connect 46 0 62 0;
#X connect 47 0 63 0;
#X connect 48 0 64 0;
#X connect 49 0 50 0;
#X connect 50 0 62 0;
#X connect 51 0 47 0;
#X connect 52 0 48 0;
#X connect 60 0 45 0;
#X connect 61 0 2 0;
#X connect 61 0 2 1;
#X connect 62 0 2 0;
#X connect 62 0 2 1;
#X connect 63 0 2 0;
#X connect 63 0 2 1;
#X connect 64 0 2 0;
#X connect 64 0 2 1;
#X connect 69 0 10 0;
#X connect 70 0 8 0;
#X connect 71 0 9 0;
#X connect 72 0 26 0;
#X connect 73 0 24 0;
#X connect 74 0 25 0;
#X connect 75 0 33 0;
#X connect 76 0 46 0;
#X connect 77 0 44 0;
#X connect 78 0 7 0;
#X connect 78 1 6 0;
#X connect 78 2 5 0;
#X connect 78 3 23 0;
#X connect 78 4 22 0;
#X connect 78 5 21 0;
#X connect 78 6 36 0;
#X connect 78 7 43 0;
#X connect 78 8 42 0;
#X connect 78 9 41 0;
#X connect 79 0 1 0;
